<?xml version="1.0" encoding="UTF-8" standalone="no"?>
<svg
   xmlns:osb="http://www.openswatchbook.org/uri/2009/osb"
   xmlns:dc="http://purl.org/dc/elements/1.1/"
   xmlns:cc="http://creativecommons.org/ns#"
   xmlns:rdf="http://www.w3.org/1999/02/22-rdf-syntax-ns#"
   xmlns:svg="http://www.w3.org/2000/svg"
   xmlns="http://www.w3.org/2000/svg"
   xmlns:xlink="http://www.w3.org/1999/xlink"
   xmlns:sodipodi="http://sodipodi.sourceforge.net/DTD/sodipodi-0.dtd"
   xmlns:inkscape="http://www.inkscape.org/namespaces/inkscape"
   width="128"
   height="128"
   viewBox="0 0 8 8"
   version="1"
   id="svg2"
   inkscape:version="0.48.4 r9939"
   sodipodi:docname="icon.svg"
   inkscape:export-filename="C:\Users\Jens\.vscode\extensions\vshaxe-debugadapter\icon.png"
   inkscape:export-xdpi="90"
   inkscape:export-ydpi="90">
  <metadata
     id="metadata26">
    <rdf:RDF>
      <cc:Work
         rdf:about="">
        <dc:format>image/svg+xml</dc:format>
        <dc:type
           rdf:resource="http://purl.org/dc/dcmitype/StillImage" />
        <dc:title />
      </cc:Work>
    </rdf:RDF>
  </metadata>
  <defs
     id="defs24">
    <linearGradient
       id="linearGradient3843"
       osb:paint="solid">
      <stop
         style="stop-color:#6dffff;stop-opacity:1;"
         offset="0"
         id="stop3845" />
    </linearGradient>
  </defs>
  <sodipodi:namedview
     pagecolor="#ffffff"
     bordercolor="#666666"
     borderopacity="1"
     objecttolerance="10"
     gridtolerance="10"
     guidetolerance="10"
     inkscape:pageopacity="0"
     inkscape:pageshadow="2"
     inkscape:window-width="1187"
     inkscape:window-height="736"
     id="namedview22"
     showgrid="false"
     inkscape:zoom="3.9248878"
     inkscape:cx="68.95304"
     inkscape:cy="55.814041"
     inkscape:window-x="3992"
     inkscape:window-y="170"
     inkscape:window-maximized="0"
     inkscape:current-layer="svg2" />
  <g
     id="g2992"
     transform="matrix(0.78125,0,0,0.78125,-0.01480467,0.03125)">
    <path
       id="path4"
       d="M 1,1 H 7 V 7 H 1 z"
       inkscape:connector-curvature="0"
       style="fill:#f7941e" />
    <path
       id="path6"
       d="M 0,0 H 2 L 4,1 1,4 0,2 z"
       inkscape:connector-curvature="0"
       style="fill:#fdb813" />
    <path
       id="path8"
       d="M 1,4 4,7 2,8 H 0 V 6 z"
       inkscape:connector-curvature="0"
       style="fill:#faa61a" />
    <path
       id="path10"
       d="M 4,1 6,0 H 8 V 2 L 7,4 z"
       inkscape:connector-curvature="0"
       style="fill:#f58220" />
    <path
       id="path12"
       d="M 7,4 8,6 V 8 H 6 L 4,7 z"
       inkscape:connector-curvature="0"
       style="fill:#f36f21" />
    <path
       id="path14"
       d="M 0,0 1,4 0,8 V 6 L 1,4 0,2 z"
       inkscape:connector-curvature="0"
       style="fill:#fff200" />
    <path
       id="path16"
       d="M 0,0 4,1 8,0 H 6 L 4,1 2,0 z"
       inkscape:connector-curvature="0"
       style="fill:#ffcb08" />
    <path
       id="path18"
       d="M 8,0 V 2 L 7,4 8,6 V 8 L 7,4 z"
       inkscape:connector-curvature="0"
       style="fill:#f15922" />
    <path
       id="path20"
       d="M 0,8 H 2 L 4,7 6,8 H 8 L 4,7 z"
       inkscape:connector-curvature="0"
       style="fill:#f68b2d" />
  </g>
  <path
     sodipodi:type="inkscape:offset"
     inkscape:radius="0.28129053"
     inkscape:original="M 6.3125 2.625 C 5.9359837 2.625 5.6113815 2.7636186 5.34375 3.03125 C 5.0761181 3.2988818 4.9375 3.6234842 4.9375 4 C 4.9375 4.3765164 5.0761177 4.7011187 5.34375 4.96875 C 5.6113815 5.2363819 5.9359837 5.375 6.3125 5.375 C 6.599466 5.375 6.8546112 5.2949409 7.09375 5.125 C 7.3328883 4.9550588 7.4980944 4.7102195 7.59375 4.4375 C 7.6405593 4.3011398 7.65625 4.2043738 7.65625 4.125 C 7.65625 4.094472 7.6423 4.0828533 7.625 4.0625 C 7.6076987 4.0421467 7.5930267 4.03125 7.5625 4.03125 C 7.5441832 4.03125 7.4689159 4.0527495 7.34375 4.125 C 7.2185836 4.1972507 7.0881063 4.2823975 6.9375 4.375 C 6.7868942 4.4676091 6.6976771 4.5251507 6.6875 4.53125 L 6.09375 4.1875 L 6.09375 3.5 L 7 3 C 7.032564 2.9776133 7.0625 2.94085 7.0625 2.90625 C 7.0625 2.8716487 7.032564 2.8348853 7 2.8125 C 6.9104502 2.7514427 6.8167367 2.7210807 6.6875 2.6875 C 6.5582637 2.6539193 6.4305428 2.625 6.3125 2.625 z M 4.84375 4.5625 L 2.78125 6.65625 C 2.7039117 6.7335883 2.65625 6.8296333 2.65625 6.9375 C 2.65625 7.0474021 2.7039117 7.1454821 2.78125 7.21875 L 3.09375 7.53125 C 3.1731236 7.6065535 3.2691683 7.65625 3.375 7.65625 C 3.4828666 7.65625 3.5809465 7.6065535 3.65625 7.53125 L 5.71875 5.4375 C 5.5192985 5.3581268 5.3411593 5.2474094 5.1875 5.09375 C 5.0338405 4.9400907 4.9231231 4.7619515 4.84375 4.5625 z M 3.5625 6.53125 C 3.6154185 6.53125 3.6800833 6.5550833 3.71875 6.59375 C 3.7574167 6.6324192 3.75 6.665834 3.75 6.71875 C 3.75 6.7716681 3.7574167 6.8363333 3.71875 6.875 C 3.6800808 6.9136667 3.615416 6.9375 3.5625 6.9375 C 3.5095817 6.9375 3.4761667 6.9136667 3.4375 6.875 C 3.3988333 6.8363305 3.375 6.7716653 3.375 6.71875 C 3.375 6.6658315 3.3988333 6.6324167 3.4375 6.59375 C 3.4761696 6.5550833 3.5095847 6.53125 3.5625 6.53125 z "
     xlink:href="#path4-1"
     style="fill:#333333"
     id="path3027"
     inkscape:href="#path4-1"
     d="m 6.3125,2.34375 c -0.4455564,0 -0.8425445,0.1862946 -1.15625,0.5 -0.3137061,0.313706 -0.5,0.7106942 -0.5,1.15625 0,0.111389 0.041199,0.2066554 0.0625,0.3125 A 0.28131866,0.28131866 0 0 0 4.65625,4.375 L 2.59375,6.46875 C 2.4749335,6.5875665 2.375,6.7467731 2.375,6.9375 c 0,0.1811961 0.1030472,0.3499159 0.21875,0.46875 0.00641,0.00658 -0.00663,0.024966 0,0.03125 l 0.3125,0.28125 a 0.28131866,0.28131866 0 0 0 0,0.03125 c 0.1167396,0.1107534 0.2748593,0.1875 0.46875,0.1875 0.1942644,0 0.3508474,-0.1008474 0.46875,-0.21875 L 5.90625,5.625 a 0.28131866,0.28131866 0 0 0 0.0625,-0.03125 c 0.1153338,0.02553 0.2216505,0.0625 0.34375,0.0625 0.3392832,0 0.6553551,-0.1119974 0.9375,-0.3125 0.2932639,-0.208405 0.4820179,-0.4939454 0.59375,-0.8125 a 0.28131866,0.28131866 0 0 0 0.03125,0 C 7.9288102,4.3744954 7.9375,4.2414443 7.9375,4.125 7.9375,4.0668901 7.9032195,3.9837742 7.875,3.9375 7.8467805,3.8912258 7.8453428,3.8768739 7.84375,3.875 7.8077099,3.8326023 7.6599657,3.75 7.5625,3.75 7.4432859,3.75 7.4273833,3.7607167 7.375,3.78125 7.3226167,3.8017833 7.2920134,3.8327096 7.21875,3.875 7.084016,3.9527735 6.9280687,4.0347264 6.78125,4.125 6.7384281,4.1513316 6.7201835,4.167098 6.6875,4.1875 L 6.375,4 6.375,3.65625 7.125,3.25 A 0.28131866,0.28131866 0 0 0 7.15625,3.21875 c 0.084715,-0.058239 0.1875,-0.1156512 0.1875,-0.3125 0,-0.196844 -0.1027777,-0.2542598 -0.1875,-0.3125 C 7.0270923,2.505687 6.8871454,2.4418857 6.75,2.40625 6.6151493,2.3712105 6.476485,2.34375 6.3125,2.34375 z m -2.75,4.3125 c 0.03154,0 0.084737,0.053487 0.0625,0.03125 0.031336,0.031338 0.03125,-2.978e-4 0.03125,0.03125 0,0.031539 -0.053488,0.084738 -0.03125,0.0625 0.022244,-0.022242 -0.030952,0.03125 -0.0625,0.03125 -0.031539,0 9.6e-5,9.6e-5 -0.03125,-0.03125 C 3.5252231,6.7752227 3.5078668,6.7642472 3.5,6.75 3.5062099,6.7308991 3.5051176,6.7136324 3.53125,6.6875 3.5625886,6.6561634 3.5309541,6.65625 3.5625,6.65625 z"
     transform="matrix(1.0184769,0,0,1.0184769,-0.09508577,-0.06946924)" />
  <path
     inkscape:connector-curvature="0"
     d="m 3.763308,6.7341594 q 0,-0.079374 -0.058,-0.1373778 -0.058,-0.058 -0.1373778,-0.058 -0.079373,0 -0.1373774,0.058 -0.058,0.058 -0.058,0.1373778 0,0.079373 0.058,0.1373772 0.058,0.058 0.1373774,0.058 0.079374,0 0.1373778,-0.058 0.058,-0.058 0.058,-0.1373772 z M 5.7293319,5.4519692 3.6473004,7.5340012 q -0.1129552,0.1129553 -0.2747551,0.1129553 -0.1587476,0 -0.277808,-0.1129553 L 2.771137,7.2042954 Q 2.6551296,7.0943935 2.6551296,6.9295404 q 0,-0.1618001 0.1160074,-0.2778076 L 4.8501167,4.572754 q 0.1190597,0.2991773 0.349549,0.5296663 0.2304889,0.2304891 0.5296662,0.3495489 z M 7.6648282,4.1239869 q 0,0.1190607 -0.070214,0.323601 -0.1434834,0.4090792 -0.5021909,0.663991 -0.3587082,0.2549113 -0.7891572,0.2549113 -0.5647744,0 -0.9662216,-0.4014479 Q 4.935596,4.5635954 4.935596,3.9988208 q 0,-0.5647737 0.4014478,-0.9662214 0.4014472,-0.4014471 0.9662216,-0.4014471 0.1770642,0 0.3709187,0.050371 0.1938551,0.050371 0.3281798,0.1419569 0.048846,0.033578 0.048846,0.08548 0,0.0519 -0.048846,0.08548 L 6.1078833,3.5103678 v 0.6838344 l 0.5891966,0.326654 Q 6.7123455,4.5117072 6.9382542,4.3727936 7.1641636,4.2338898 7.3519132,4.1255138 7.539662,4.017138 7.5671372,4.017138 q 0.04579,0 0.071742,0.03053 0.02595,0.03053 0.02595,0.076322 z"
     id="path4-1"
     style="fill:#b3b3b3" />
</svg>
